<svg xmlns="http://www.w3.org/2000/svg" viewBox="0 0 16 16" shape-rendering="crispEdges">
  <title>Only the stitches and stem-face whites</title>
  <rect x="6" y="1" width="1" height="1" fill="#ffffff"/>
  <rect x="8" y="1" width="2" height="1" fill="#ffffff"/>
  <rect x="5" y="2" width="2" height="1" fill="#ffffff"/>
  <rect x="8" y="2" width="3" height="1" fill="#ffffff"/>
  <rect x="4" y="3" width="4" height="1" fill="#ffffff"/>
  <rect x="9" y="3" width="3" height="1" fill="#ffffff"/>
  <rect x="6" y="4" width="3" height="1" fill="#ffffff"/>
  <rect x="10" y="4" width="2" height="1" fill="#ffffff"/>
  <rect x="1" y="5" width="1" height="1" fill="#ffffff"/>
  <rect x="4" y="5" width="2" height="1" fill="#ffffff"/>
  <rect x="7" y="5" width="3" height="1" fill="#ffffff"/>
  <rect x="14" y="5" width="1" height="1" fill="#ffffff"/>
  <rect x="1" y="6" width="2" height="1" fill="#ffffff"/>
  <rect x="4" y="6" width="3" height="1" fill="#ffffff"/>
  <rect x="8" y="6" width="4" height="1" fill="#ffffff"/>
  <rect x="13" y="6" width="2" height="1" fill="#ffffff"/>
  <rect x="1" y="7" width="2" height="1" fill="#ffffff"/>
  <rect x="5" y="7" width="3" height="1" fill="#ffffff"/>
  <rect x="9" y="7" width="2" height="1" fill="#ffffff"/>
  <rect x="13" y="7" width="2" height="1" fill="#ffffff"/>
  <rect x="1" y="8" width="2" height="1" fill="#ffffff"/>
  <rect x="6" y="8" width="2" height="1" fill="#ffffff"/>
  <rect x="9" y="8" width="1" height="1" fill="#ffffff"/>
  <rect x="13" y="8" width="2" height="1" fill="#ffffff"/>
  <rect x="1" y="9" width="1" height="1" fill="#ffffff"/>
  <rect x="14" y="9" width="1" height="1" fill="#ffffff"/>
  <rect x="6" y="10" width="4" height="1" fill="#ffffff"/>
  <rect x="4" y="11" width="2" height="1" fill="#ffffff"/>
  <rect x="7" y="11" width="2" height="1" fill="#ffffff"/>
  <rect x="10" y="11" width="2" height="1" fill="#ffffff"/>
  <rect x="4" y="12" width="2" height="1" fill="#ffffff"/>
  <rect x="7" y="12" width="2" height="1" fill="#ffffff"/>
  <rect x="10" y="12" width="2" height="1" fill="#ffffff"/>
  <rect x="4" y="13" width="2" height="1" fill="#ffffff"/>
  <rect x="7" y="13" width="2" height="1" fill="#ffffff"/>
  <rect x="10" y="13" width="2" height="1" fill="#ffffff"/>
  <rect x="5" y="14" width="6" height="1" fill="#ffffff"/>
</svg>
