<?xml version="1.0" encoding="UTF-8" standalone="no"?><!-- Generator: Gravit.io --><svg xmlns="http://www.w3.org/2000/svg" xmlns:xlink="http://www.w3.org/1999/xlink" style="isolation:isolate" viewBox="0 0 1024 1024" width="1024pt" height="1024pt"><defs><clipPath id="_clipPath_AhOhLy3ov1Nh3vWXj0jW9GfagiaP3xLA"><rect width="1024" height="1024"/></clipPath></defs><g clip-path="url(#_clipPath_AhOhLy3ov1Nh3vWXj0jW9GfagiaP3xLA)"><g><g><rect x="225" y="304" width="270" height="45" transform="matrix(1,0,0,1,0,0)" fill="rgb(0,0,0)"/><rect x="135" y="349" width="90" height="45" transform="matrix(1,0,0,1,0,0)" fill="rgb(0,0,0)"/><rect x="225" y="349" width="45" height="45" transform="matrix(1,0,0,1,0,0)" fill="rgb(255,0,0)"/><rect x="270" y="349" width="45" height="45" transform="matrix(1,0,0,1,0,0)" fill="rgb(255,255,255)"/><rect x="315" y="349" width="45" height="45" transform="matrix(1,0,0,1,0,0)" fill="rgb(255,0,0)"/><rect x="360" y="349" width="90" height="45" transform="matrix(1,0,0,1,0,0)" fill="rgb(255,255,255)"/><rect x="450" y="349" width="45" height="45" transform="matrix(1,0,0,1,0,0)" fill="rgb(255,0,0)"/><rect x="495" y="349" width="90" height="45" transform="matrix(1,0,0,1,0,0)" fill="rgb(0,0,0)"/><rect x="90" y="394" width="45" height="45" transform="matrix(1,0,0,1,0,0)" fill="rgb(0,0,0)"/><rect x="135" y="394" width="90" height="45" transform="matrix(1,0,0,1,0,0)" fill="rgb(255,0,0)"/><rect x="225" y="394" width="90" height="45" transform="matrix(1,0,0,1,0,0)" fill="rgb(255,255,255)"/><rect x="315" y="394" width="45" height="45" transform="matrix(1,0,0,1,0,0)" fill="rgb(255,0,0)"/><rect x="360" y="394" width="135" height="45" transform="matrix(1,0,0,1,0,0)" fill="rgb(255,255,255)"/><rect x="495" y="394" width="90" height="45" transform="matrix(1,0,0,1,0,0)" fill="rgb(255,0,0)"/><rect x="585" y="394" width="45" height="45" transform="matrix(1,0,0,1,0,0)" fill="rgb(0,0,0)"/><rect x="45" y="439" width="45" height="45" transform="matrix(1,0,0,1,0,0)" fill="rgb(0,0,0)"/><rect x="90" y="439" width="90" height="45" transform="matrix(1,0,0,1,0,0)" fill="rgb(255,0,0)"/><rect x="180" y="439" width="180" height="45" transform="matrix(1,0,0,1,0,0)" fill="rgb(255,255,255)"/><rect x="360" y="439" width="45" height="45" transform="matrix(1,0,0,1,0,0)" fill="rgb(255,0,0)"/><rect x="405" y="439" width="135" height="45" transform="matrix(1,0,0,1,0,0)" fill="rgb(255,255,255)"/><rect x="540" y="439" width="90" height="45" transform="matrix(1,0,0,1,0,0)" fill="rgb(255,0,0)"/><rect x="630" y="439" width="45" height="45" transform="matrix(1,0,0,1,0,0)" fill="rgb(0,0,0)"/><rect x="45" y="484" width="45" height="45" transform="matrix(1,0,0,1,0,0)" fill="rgb(0,0,0)"/><rect x="90" y="484" width="180" height="45" transform="matrix(1,0,0,1,0,0)" fill="rgb(255,0,0)"/><rect x="270" y="484" width="135" height="45" transform="matrix(1,0,0,1,0,0)" fill="rgb(255,255,255)"/><rect x="405" y="484" width="45" height="45" transform="matrix(1,0,0,1,0,0)" fill="rgb(255,0,0)"/><rect x="450" y="484" width="90" height="45" transform="matrix(1,0,0,1,0,0)" fill="rgb(255,255,255)"/><rect x="540" y="484" width="90" height="45" transform="matrix(1,0,0,1,0,0)" fill="rgb(255,0,0)"/><rect x="630" y="484" width="45" height="45" transform="matrix(1,0,0,1,0,0)" fill="rgb(0,0,0)"/><rect x="0" y="529" width="45" height="45" transform="matrix(1,0,0,1,0,0)" fill="rgb(0,0,0)"/><rect x="45" y="529" width="45" height="45" transform="matrix(1,0,0,1,0,0)" fill="rgb(255,255,255)"/><rect x="90" y="529" width="90" height="45" transform="matrix(1,0,0,1,0,0)" fill="rgb(255,0,0)"/><rect x="180" y="529" width="90" height="45" transform="matrix(1,0,0,1,0,0)" fill="rgb(255,255,255)"/><rect x="270" y="529" width="45" height="45" transform="matrix(1,0,0,1,0,0)" fill="rgb(255,0,0)"/><rect x="315" y="529" width="135" height="45" transform="matrix(1,0,0,1,0,0)" fill="rgb(255,255,255)"/><rect x="450" y="529" width="180" height="45" transform="matrix(1,0,0,1,0,0)" fill="rgb(255,0,0)"/><rect x="630" y="529" width="45" height="45" transform="matrix(1,0,0,1,0,0)" fill="rgb(255,255,255)"/><rect x="675" y="529" width="45" height="45" transform="matrix(1,0,0,1,0,0)" fill="rgb(0,0,0)"/><rect x="0" y="574" width="45" height="45" transform="matrix(1,0,0,1,0,0)" fill="rgb(0,0,0)"/><rect x="45" y="574" width="90" height="45" transform="matrix(1,0,0,1,0,0)" fill="rgb(255,255,255)"/><rect x="135" y="574" width="45" height="45" transform="matrix(1,0,0,1,0,0)" fill="rgb(255,0,0)"/><rect x="180" y="574" width="135" height="45" transform="matrix(1,0,0,1,0,0)" fill="rgb(255,255,255)"/><rect x="315" y="574" width="45" height="45" transform="matrix(1,0,0,1,0,0)" fill="rgb(255,0,0)"/><rect x="360" y="574" width="180" height="45" transform="matrix(1,0,0,1,0,0)" fill="rgb(255,255,255)"/><rect x="540" y="574" width="45" height="45" transform="matrix(1,0,0,1,0,0)" fill="rgb(255,0,0)"/><rect x="585" y="574" width="90" height="45" transform="matrix(1,0,0,1,0,0)" fill="rgb(255,255,255)"/><rect x="675" y="574" width="45" height="45" transform="matrix(1,0,0,1,0,0)" fill="rgb(0,0,0)"/><rect x="0" y="619" width="45" height="45" transform="matrix(1,0,0,1,0,0)" fill="rgb(0,0,0)"/><rect x="45" y="619" width="90" height="45" transform="matrix(1,0,0,1,0,0)" fill="rgb(255,255,255)"/><rect x="135" y="619" width="90" height="45" transform="matrix(1,0,0,1,0,0)" fill="rgb(255,0,0)"/><rect x="225" y="619" width="135" height="45" transform="matrix(1,0,0,1,0,0)" fill="rgb(255,255,255)"/><rect x="360" y="619" width="45" height="45" transform="matrix(1,0,0,1,0,0)" fill="rgb(255,0,0)"/><rect x="405" y="619" width="90" height="45" transform="matrix(1,0,0,1,0,0)" fill="rgb(255,255,255)"/><rect x="495" y="619" width="90" height="45" transform="matrix(1,0,0,1,0,0)" fill="rgb(255,0,0)"/><rect x="585" y="619" width="90" height="45" transform="matrix(1,0,0,1,0,0)" fill="rgb(255,255,255)"/><rect x="675" y="619" width="45" height="45" transform="matrix(1,0,0,1,0,0)" fill="rgb(0,0,0)"/><rect x="0" y="664" width="45" height="45" transform="matrix(1,0,0,1,0,0)" fill="rgb(0,0,0)"/><rect x="45" y="664" width="90" height="45" transform="matrix(1,0,0,1,0,0)" fill="rgb(255,255,255)"/><rect x="135" y="664" width="135" height="45" transform="matrix(1,0,0,1,0,0)" fill="rgb(255,0,0)"/><rect x="270" y="664" width="90" height="45" transform="matrix(1,0,0,1,0,0)" fill="rgb(255,255,255)"/><rect x="360" y="664" width="45" height="45" transform="matrix(1,0,0,1,0,0)" fill="rgb(255,0,0)"/><rect x="405" y="664" width="45" height="45" transform="matrix(1,0,0,1,0,0)" fill="rgb(255,255,255)"/><rect x="450" y="664" width="135" height="45" transform="matrix(1,0,0,1,0,0)" fill="rgb(255,0,0)"/><rect x="585" y="664" width="90" height="45" transform="matrix(1,0,0,1,0,0)" fill="rgb(255,255,255)"/><rect x="675" y="664" width="45" height="45" transform="matrix(1,0,0,1,0,0)" fill="rgb(0,0,0)"/><rect x="0" y="709" width="45" height="45" transform="matrix(1,0,0,1,0,0)" fill="rgb(0,0,0)"/><rect x="45" y="709" width="45" height="45" transform="matrix(1,0,0,1,0,0)" fill="rgb(255,255,255)"/><rect x="90" y="709" width="180" height="45" transform="matrix(1,0,0,1,0,0)" fill="rgb(255,0,0)"/><rect x="270" y="709" width="180" height="45" transform="matrix(1,0,0,1,0,0)" fill="rgb(0,0,0)"/><rect x="450" y="709" width="180" height="45" transform="matrix(1,0,0,1,0,0)" fill="rgb(255,0,0)"/><rect x="630" y="709" width="45" height="45" transform="matrix(1,0,0,1,0,0)" fill="rgb(255,255,255)"/><rect x="675" y="709" width="45" height="45" transform="matrix(1,0,0,1,0,0)" fill="rgb(0,0,0)"/><rect x="0" y="754" width="45" height="45" transform="matrix(1,0,0,1,0,0)" fill="rgb(0,0,0)"/><rect x="45" y="754" width="135" height="45" transform="matrix(1,0,0,1,0,0)" fill="rgb(255,0,0)"/><rect x="180" y="754" width="90" height="45" transform="matrix(1,0,0,1,0,0)" fill="rgb(0,0,0)"/><rect x="270" y="754" width="180" height="45" transform="matrix(1,0,0,1,0,0)" fill="rgb(255,255,255)"/><rect x="450" y="754" width="90" height="45" transform="matrix(1,0,0,1,0,0)" fill="rgb(0,0,0)"/><rect x="540" y="754" width="135" height="45" transform="matrix(1,0,0,1,0,0)" fill="rgb(255,0,0)"/><rect x="675" y="754" width="45" height="45" transform="matrix(1,0,0,1,0,0)" fill="rgb(0,0,0)"/><rect x="45" y="799" width="45" height="45" transform="matrix(1,0,0,1,0,0)" fill="rgb(0,0,0)"/><rect x="90" y="799" width="45" height="45" transform="matrix(1,0,0,1,0,0)" fill="rgb(255,0,0)"/><rect x="135" y="799" width="45" height="45" transform="matrix(1,0,0,1,0,0)" fill="rgb(0,0,0)"/><rect x="180" y="799" width="90" height="45" transform="matrix(1,0,0,1,0,0)" fill="rgb(255,255,255)"/><rect x="270" y="799" width="45" height="45" transform="matrix(1,0,0,1,0,0)" fill="rgb(0,0,0)"/><rect x="315" y="799" width="90" height="45" transform="matrix(1,0,0,1,0,0)" fill="rgb(255,255,255)"/><rect x="405" y="799" width="45" height="45" transform="matrix(1,0,0,1,0,0)" fill="rgb(0,0,0)"/><rect x="450" y="799" width="90" height="45" transform="matrix(1,0,0,1,0,0)" fill="rgb(255,255,255)"/><rect x="540" y="799" width="45" height="45" transform="matrix(1,0,0,1,0,0)" fill="rgb(0,0,0)"/><rect x="585" y="799" width="45" height="45" transform="matrix(1,0,0,1,0,0)" fill="rgb(255,0,0)"/><rect x="630" y="799" width="45" height="45" transform="matrix(1,0,0,1,0,0)" fill="rgb(0,0,0)"/><rect x="90" y="844" width="90" height="45" transform="matrix(1,0,0,1,0,0)" fill="rgb(0,0,0)"/><rect x="180" y="844" width="90" height="45" transform="matrix(1,0,0,1,0,0)" fill="rgb(255,255,255)"/><rect x="270" y="844" width="45" height="45" transform="matrix(1,0,0,1,0,0)" fill="rgb(0,0,0)"/><rect x="315" y="844" width="90" height="45" transform="matrix(1,0,0,1,0,0)" fill="rgb(255,255,255)"/><rect x="405" y="844" width="45" height="45" transform="matrix(1,0,0,1,0,0)" fill="rgb(0,0,0)"/><rect x="450" y="844" width="90" height="45" transform="matrix(1,0,0,1,0,0)" fill="rgb(255,255,255)"/><rect x="540" y="844" width="90" height="45" transform="matrix(1,0,0,1,0,0)" fill="rgb(0,0,0)"/><rect x="135" y="889" width="45" height="45" transform="matrix(1,0,0,1,0,0)" fill="rgb(0,0,0)"/><rect x="180" y="889" width="90" height="45" transform="matrix(1,0,0,1,0,0)" fill="rgb(255,255,255)"/><rect x="270" y="889" width="45" height="45" transform="matrix(1,0,0,1,0,0)" fill="rgb(0,0,0)"/><rect x="315" y="889" width="90" height="45" transform="matrix(1,0,0,1,0,0)" fill="rgb(255,255,255)"/><rect x="405" y="889" width="45" height="45" transform="matrix(1,0,0,1,0,0)" fill="rgb(0,0,0)"/><rect x="450" y="889" width="90" height="45" transform="matrix(1,0,0,1,0,0)" fill="rgb(255,255,255)"/><rect x="540" y="889" width="45" height="45" transform="matrix(1,0,0,1,0,0)" fill="rgb(0,0,0)"/><rect x="180" y="934" width="45" height="45" transform="matrix(1,0,0,1,0,0)" fill="rgb(0,0,0)"/><rect x="225" y="934" width="270" height="45" transform="matrix(1,0,0,1,0,0)" fill="rgb(255,255,255)"/><rect x="495" y="934" width="45" height="45" transform="matrix(1,0,0,1,0,0)" fill="rgb(0,0,0)"/><rect x="225" y="979" width="270" height="45" transform="matrix(1,0,0,1,0,0)" fill="rgb(0,0,0)"/></g><path d=" M 584 278.299 C 657.212 305.583 715.417 363.788 742.701 437" fill="none" vector-effect="non-scaling-stroke" stroke-width="60" stroke="rgb(255,0,0)" stroke-linejoin="miter" stroke-linecap="round" stroke-miterlimit="3"/><path d=" M 608.435 168.823 C 720.878 210.727 810.273 300.122 852.177 412.565" fill="none" vector-effect="non-scaling-stroke" stroke-width="60" stroke="rgb(255,0,0)" stroke-linejoin="miter" stroke-linecap="round" stroke-miterlimit="3"/><path d=" M 633.278 57.522 C 785.605 114.29 906.71 235.395 963.478 387.722" fill="none" vector-effect="non-scaling-stroke" stroke-width="60" stroke="rgb(255,0,0)" stroke-linejoin="miter" stroke-linecap="round" stroke-miterlimit="3"/></g></g></svg>