<svg viewBox="0 0 496 766" preserveAspectRatio="xMidYMid meet" xmlns="http://www.w3.org/2000/svg">
  <!--
    DEFAULT package - Vertical Scorecard: the Project Rio tall broadcast card.
    The source is the SIZE OF THE CARD (496x766) — where the column sits in the
    frame is a scene decision, made once in OBS, not a thing the theme spends
    three quarters of its canvas declaring. Every numbered design element is an
    independently toggleable group; the mount
    (scorecard-mount.js) MELDS the active elements into one continuous card
    (shared card-bg + accent rail + inter-section dividers) and reflows/animates
    the stack when the producer toggles elements via overlays.scorecard.*.

    STACK CONTRACT: every el-* group is authored at a LOCAL y origin of 0 and
    declares its band height via data-h. X coordinates are absolute (the card
    column spans x 8..488, inside an 8-unit gutter). The mount translates each
    active group to its stacked Y, hides the rest, sizes card-bg/card-rail to
    the active stack, and hides the .sc-div top rule on the first visible
    section. The canvas HEIGHT is the tallest that stack can get (every band
    plus the full score block, 750) — the card top-anchors and the slack below
    it is transparent, so a producer's OBS placement holds as bands come and
    go. The mount reads the card box back off card-bg/card-rail rather than
    assuming this one, so a theme may park its column anywhere on its canvas.

    ELEMENT GROUPS: el-header(0) el-phase(1) el-mode(2) el-main(3)
      el-condensed(3a) el-atbat(4) el-box(5) el-stadium(6)

    DATA SLOTS (data-slot; mount binds text/image; missing = skipped):
      HEADER:  header-logo(g) logo(image) logo-default(g) header-title(text)
      PHASE:   phase(text)   MODE: mode(text)
      MAIN side T in {1,2}:
        sT-logo(image) sT-name(text,maxw) sT-score(text)
        sT-char-0..8(image)  (standard roster order 0..8)
        inn-num inn-arrow-up inn-arrow-down final-badge
        ball-0..3 strike-0..2 out-0..2   (mount sets fill on active)
        base-1 base-2 base-3 (polygon; mount fills when occupied)
        runner-1 runner-2 runner-3 (image)
      CONDENSED: c-s1-logo c-s1-name c-s1-score c-s2-logo c-s2-name c-s2-score
        c-inn-num c-inn-arrow-up c-inn-arrow-down c-final
      ATBAT:  bat-icon bat-line   pit-icon pit-line
      BOX:    box-away-dot box-home-dot
        box-h-1..9 box-col-1..9(g) box-away-1..9 box-home-1..9 box-away-r box-home-r
      STADIUM: stadium(text)

    COLOUR: CSS vars resolve in SVG only via inline style="", never presentation
    attributes. The mount overrides the accent + per-side vars at runtime; the
    rest inherit from rio-theme/tokens.css (fixed Rio palette).
  -->
  <style>
    .sc-cardbg { fill: var(--band); stroke: var(--border); stroke-width: 1.5; }
    .sc-rail   { fill: var(--accent); }
    .sc-div    { fill: var(--border); }
    .sc-tick   { fill: rgba(255,255,255,0.045); }
    .sc-ink    { fill: var(--ink); font-family: var(--font-display); }
    .sc-dim    { fill: var(--ink-dim); font-family: var(--font-body); }
    .sc-num    { fill: var(--ink); font-family: var(--font-mono); font-variant-numeric: tabular-nums; }
    .sc-mono   { fill: var(--ink-dim); font-family: var(--font-mono); }
  </style>

  <!-- Subtle L to R port-colour wash under each username bar. The mount
       overrides the per-side colour vars from each player's controller port
       (P1/P2 fallback when unassigned) so the bar tint matches the box dots. -->
  <defs>
    <!-- .. THE PROJECT RIO MARK ..................................... -->
    <!-- Verbatim pixel data from public/game_assets/ProjectRio.svg, inlined so
         the package stays self-contained (the same call lowerthird.svg makes). -->
    <symbol id="rio-mark" viewBox="0 0 16 16" shape-rendering="crispEdges">
        <rect x="5" y="0" width="6" height="1" fill="#000000"/>
        <rect x="3" y="1" width="2" height="1" fill="#000000"/>
        <rect x="5" y="1" width="1" height="1" fill="#ff0000"/>
        <rect x="6" y="1" width="1" height="1" fill="#ffffff"/>
        <rect x="7" y="1" width="1" height="1" fill="#ff0000"/>
        <rect x="8" y="1" width="2" height="1" fill="#ffffff"/>
        <rect x="10" y="1" width="1" height="1" fill="#ff0000"/>
        <rect x="11" y="1" width="2" height="1" fill="#000000"/>
        <rect x="2" y="2" width="1" height="1" fill="#000000"/>
        <rect x="3" y="2" width="2" height="1" fill="#ff0000"/>
        <rect x="5" y="2" width="2" height="1" fill="#ffffff"/>
        <rect x="7" y="2" width="1" height="1" fill="#ff0000"/>
        <rect x="8" y="2" width="3" height="1" fill="#ffffff"/>
        <rect x="11" y="2" width="2" height="1" fill="#ff0000"/>
        <rect x="13" y="2" width="1" height="1" fill="#000000"/>
        <rect x="1" y="3" width="1" height="1" fill="#000000"/>
        <rect x="2" y="3" width="2" height="1" fill="#ff0000"/>
        <rect x="4" y="3" width="4" height="1" fill="#ffffff"/>
        <rect x="8" y="3" width="1" height="1" fill="#ff0000"/>
        <rect x="9" y="3" width="3" height="1" fill="#ffffff"/>
        <rect x="12" y="3" width="2" height="1" fill="#ff0000"/>
        <rect x="14" y="3" width="1" height="1" fill="#000000"/>
        <rect x="1" y="4" width="1" height="1" fill="#000000"/>
        <rect x="2" y="4" width="4" height="1" fill="#ff0000"/>
        <rect x="6" y="4" width="3" height="1" fill="#ffffff"/>
        <rect x="9" y="4" width="1" height="1" fill="#ff0000"/>
        <rect x="10" y="4" width="2" height="1" fill="#ffffff"/>
        <rect x="12" y="4" width="2" height="1" fill="#ff0000"/>
        <rect x="14" y="4" width="1" height="1" fill="#000000"/>
        <rect x="0" y="5" width="1" height="1" fill="#000000"/>
        <rect x="1" y="5" width="1" height="1" fill="#ffffff"/>
        <rect x="2" y="5" width="2" height="1" fill="#ff0000"/>
        <rect x="4" y="5" width="2" height="1" fill="#ffffff"/>
        <rect x="6" y="5" width="1" height="1" fill="#ff0000"/>
        <rect x="7" y="5" width="3" height="1" fill="#ffffff"/>
        <rect x="10" y="5" width="4" height="1" fill="#ff0000"/>
        <rect x="14" y="5" width="1" height="1" fill="#ffffff"/>
        <rect x="15" y="5" width="1" height="1" fill="#000000"/>
        <rect x="0" y="6" width="1" height="1" fill="#000000"/>
        <rect x="1" y="6" width="2" height="1" fill="#ffffff"/>
        <rect x="3" y="6" width="1" height="1" fill="#ff0000"/>
        <rect x="4" y="6" width="3" height="1" fill="#ffffff"/>
        <rect x="7" y="6" width="1" height="1" fill="#ff0000"/>
        <rect x="8" y="6" width="4" height="1" fill="#ffffff"/>
        <rect x="12" y="6" width="1" height="1" fill="#ff0000"/>
        <rect x="13" y="6" width="2" height="1" fill="#ffffff"/>
        <rect x="15" y="6" width="1" height="1" fill="#000000"/>
        <rect x="0" y="7" width="1" height="1" fill="#000000"/>
        <rect x="1" y="7" width="2" height="1" fill="#ffffff"/>
        <rect x="3" y="7" width="2" height="1" fill="#ff0000"/>
        <rect x="5" y="7" width="3" height="1" fill="#ffffff"/>
        <rect x="8" y="7" width="1" height="1" fill="#ff0000"/>
        <rect x="9" y="7" width="2" height="1" fill="#ffffff"/>
        <rect x="11" y="7" width="2" height="1" fill="#ff0000"/>
        <rect x="13" y="7" width="2" height="1" fill="#ffffff"/>
        <rect x="15" y="7" width="1" height="1" fill="#000000"/>
        <rect x="0" y="8" width="1" height="1" fill="#000000"/>
        <rect x="1" y="8" width="2" height="1" fill="#ffffff"/>
        <rect x="3" y="8" width="3" height="1" fill="#ff0000"/>
        <rect x="6" y="8" width="2" height="1" fill="#ffffff"/>
        <rect x="8" y="8" width="1" height="1" fill="#ff0000"/>
        <rect x="9" y="8" width="1" height="1" fill="#ffffff"/>
        <rect x="10" y="8" width="3" height="1" fill="#ff0000"/>
        <rect x="13" y="8" width="2" height="1" fill="#ffffff"/>
        <rect x="15" y="8" width="1" height="1" fill="#000000"/>
        <rect x="0" y="9" width="1" height="1" fill="#000000"/>
        <rect x="1" y="9" width="1" height="1" fill="#ffffff"/>
        <rect x="2" y="9" width="4" height="1" fill="#ff0000"/>
        <rect x="6" y="9" width="4" height="1" fill="#000000"/>
        <rect x="10" y="9" width="4" height="1" fill="#ff0000"/>
        <rect x="14" y="9" width="1" height="1" fill="#ffffff"/>
        <rect x="15" y="9" width="1" height="1" fill="#000000"/>
        <rect x="0" y="10" width="1" height="1" fill="#000000"/>
        <rect x="1" y="10" width="3" height="1" fill="#ff0000"/>
        <rect x="4" y="10" width="2" height="1" fill="#000000"/>
        <rect x="6" y="10" width="4" height="1" fill="#ffffff"/>
        <rect x="10" y="10" width="2" height="1" fill="#000000"/>
        <rect x="12" y="10" width="3" height="1" fill="#ff0000"/>
        <rect x="15" y="10" width="1" height="1" fill="#000000"/>
        <rect x="1" y="11" width="1" height="1" fill="#000000"/>
        <rect x="2" y="11" width="1" height="1" fill="#ff0000"/>
        <rect x="3" y="11" width="1" height="1" fill="#000000"/>
        <rect x="4" y="11" width="2" height="1" fill="#ffffff"/>
        <rect x="6" y="11" width="1" height="1" fill="#000000"/>
        <rect x="7" y="11" width="2" height="1" fill="#ffffff"/>
        <rect x="9" y="11" width="1" height="1" fill="#000000"/>
        <rect x="10" y="11" width="2" height="1" fill="#ffffff"/>
        <rect x="12" y="11" width="1" height="1" fill="#000000"/>
        <rect x="13" y="11" width="1" height="1" fill="#ff0000"/>
        <rect x="14" y="11" width="1" height="1" fill="#000000"/>
        <rect x="2" y="12" width="2" height="1" fill="#000000"/>
        <rect x="4" y="12" width="2" height="1" fill="#ffffff"/>
        <rect x="6" y="12" width="1" height="1" fill="#000000"/>
        <rect x="7" y="12" width="2" height="1" fill="#ffffff"/>
        <rect x="9" y="12" width="1" height="1" fill="#000000"/>
        <rect x="10" y="12" width="2" height="1" fill="#ffffff"/>
        <rect x="12" y="12" width="2" height="1" fill="#000000"/>
        <rect x="3" y="13" width="1" height="1" fill="#000000"/>
        <rect x="4" y="13" width="2" height="1" fill="#ffffff"/>
        <rect x="6" y="13" width="1" height="1" fill="#000000"/>
        <rect x="7" y="13" width="2" height="1" fill="#ffffff"/>
        <rect x="9" y="13" width="1" height="1" fill="#000000"/>
        <rect x="10" y="13" width="2" height="1" fill="#ffffff"/>
        <rect x="12" y="13" width="1" height="1" fill="#000000"/>
        <rect x="4" y="14" width="1" height="1" fill="#000000"/>
        <rect x="5" y="14" width="6" height="1" fill="#ffffff"/>
        <rect x="11" y="14" width="1" height="1" fill="#000000"/>
        <rect x="5" y="15" width="6" height="1" fill="#000000"/>
    </symbol>

    <linearGradient id="sc-name-1" x1="0" y1="0" x2="0" y2="1">
      <stop offset="0" style="stop-color:var(--side1)" stop-opacity="0.24"/>
      <stop offset="1" style="stop-color:var(--side1)" stop-opacity="0.09"/>
    </linearGradient>
    <linearGradient id="sc-name-2" x1="0" y1="0" x2="0" y2="1">
      <stop offset="0" style="stop-color:var(--side2)" stop-opacity="0.24"/>
      <stop offset="1" style="stop-color:var(--side2)" stop-opacity="0.09"/>
    </linearGradient>
  </defs>

  <!-- Shared melded background + accent rail (mount sizes both to the stack). -->
  <rect data-slot="card-rail" class="sc-rail" x="8" y="8" width="6" height="750" rx="3"/>
  <rect data-slot="card-bg"  class="sc-cardbg" x="14" y="8" width="474" height="750" rx="16"/>

  <!-- ░░ 0 · HEADER ░░ -->
  <g data-slot="el-header" data-h="66">
    <g data-slot="header-logo" transform="translate(56,0)">
      <image data-slot="logo" x="0" y="13" width="40" height="40" preserveAspectRatio="xMidYMid meet" opacity="0"/>
      <g data-slot="logo-default">
        <!-- The BOX stays 40x40: it is a slot for whatever logo the user
             uploaded, and that is arbitrary artwork with no grid. The MARK is
             not — it is a 16px pixel grid painted with crispEdges, so at a size
             that is not a whole multiple the renderer snaps its rows to uneven
             widths and the baseball stitching reads as a corrupted asset. 32 is
             2 x 16, centred in the box. Drawn at 40 (2.5 grid pixels) through a
             hand-written scale factor until 2026-08-01. -->
        <use href="#rio-mark" x="4" y="17" width="32" height="32"/>
      </g>
    </g>
    <text data-slot="header-title" data-maxw="360" x="108" y="42" class="sc-ink" font-size="26" font-weight="700" letter-spacing="0.5">Project Rio</text>
  </g>

  <!-- ░░ 1 · BRACKET PHASE ░░ -->
  <g data-slot="el-phase" data-h="44">
    <rect class="sc-div" x="16" y="0" width="464" height="1.5"/>
    <text data-slot="phase" data-maxw="420" x="248" y="29" text-anchor="middle" class="sc-ink" font-size="21" font-weight="700" letter-spacing="1.5">BRACKET PHASE</text>
  </g>

  <!-- ░░ 2 · GAME MODE ░░ -->
  <g data-slot="el-mode" data-h="44">
    <rect class="sc-div" x="16" y="0" width="464" height="1.5"/>
    <text data-slot="mode" data-maxw="420" x="248" y="29" text-anchor="middle" class="sc-dim" font-size="19" font-weight="600" letter-spacing="1.5">GAME MODE</text>
  </g>

  <!-- ░░ 3 · MAIN SCORE BLOCK ░░ -->
  <g data-slot="el-main" data-h="348">
    <rect class="sc-div" x="16" y="0" width="464" height="1.5"/>

    <!-- Side 1 -->
    <rect class="sc-tick" x="28" y="12" width="440" height="52" rx="8"/>
    <rect x="28" y="12" width="440" height="52" rx="8" style="fill:url(#sc-name-1)"/>
    <rect x="28" y="12" width="50" height="52" rx="8" style="fill:var(--side1)" opacity="0.55"/>
    <rect x="76" y="12" width="2" height="52" style="fill:var(--side1)" opacity="0.7"/>
    <image data-slot="s1-logo" x="34" y="18" width="40" height="40" preserveAspectRatio="xMidYMid meet" opacity="0"/>
    <text data-slot="s1-name" data-maxw="300" x="94" y="48" class="sc-ink" font-size="30" font-weight="700">Player One</text>
    <text data-slot="s1-score" data-maxw="90" x="460" y="52" text-anchor="end" class="sc-num" font-size="40" font-weight="700">0</text>
    <image data-slot="s1-char-0" x="28" y="72" width="32" height="32" preserveAspectRatio="xMidYMid meet" style="image-rendering:pixelated" opacity="0"/>
    <image data-slot="s1-char-1" x="77" y="72" width="32" height="32" preserveAspectRatio="xMidYMid meet" style="image-rendering:pixelated" opacity="0"/>
    <image data-slot="s1-char-2" x="126" y="72" width="32" height="32" preserveAspectRatio="xMidYMid meet" style="image-rendering:pixelated" opacity="0"/>
    <image data-slot="s1-char-3" x="175" y="72" width="32" height="32" preserveAspectRatio="xMidYMid meet" style="image-rendering:pixelated" opacity="0"/>
    <image data-slot="s1-char-4" x="224" y="72" width="32" height="32" preserveAspectRatio="xMidYMid meet" style="image-rendering:pixelated" opacity="0"/>
    <image data-slot="s1-char-5" x="273" y="72" width="32" height="32" preserveAspectRatio="xMidYMid meet" style="image-rendering:pixelated" opacity="0"/>
    <image data-slot="s1-char-6" x="322" y="72" width="32" height="32" preserveAspectRatio="xMidYMid meet" style="image-rendering:pixelated" opacity="0"/>
    <image data-slot="s1-char-7" x="371" y="72" width="32" height="32" preserveAspectRatio="xMidYMid meet" style="image-rendering:pixelated" opacity="0"/>
    <image data-slot="s1-char-8" x="420" y="72" width="32" height="32" preserveAspectRatio="xMidYMid meet" style="image-rendering:pixelated" opacity="0"/>

    <!-- Side 2 -->
    <rect class="sc-tick" x="28" y="118" width="440" height="52" rx="8"/>
    <rect x="28" y="118" width="440" height="52" rx="8" style="fill:url(#sc-name-2)"/>
    <rect x="28" y="118" width="50" height="52" rx="8" style="fill:var(--side2)" opacity="0.55"/>
    <rect x="76" y="118" width="2" height="52" style="fill:var(--side2)" opacity="0.7"/>
    <image data-slot="s2-logo" x="34" y="124" width="40" height="40" preserveAspectRatio="xMidYMid meet" opacity="0"/>
    <text data-slot="s2-name" data-maxw="300" x="94" y="154" class="sc-ink" font-size="30" font-weight="700">Player Two</text>
    <text data-slot="s2-score" data-maxw="90" x="460" y="158" text-anchor="end" class="sc-num" font-size="40" font-weight="700">0</text>
    <image data-slot="s2-char-0" x="28" y="178" width="32" height="32" preserveAspectRatio="xMidYMid meet" style="image-rendering:pixelated" opacity="0"/>
    <image data-slot="s2-char-1" x="77" y="178" width="32" height="32" preserveAspectRatio="xMidYMid meet" style="image-rendering:pixelated" opacity="0"/>
    <image data-slot="s2-char-2" x="126" y="178" width="32" height="32" preserveAspectRatio="xMidYMid meet" style="image-rendering:pixelated" opacity="0"/>
    <image data-slot="s2-char-3" x="175" y="178" width="32" height="32" preserveAspectRatio="xMidYMid meet" style="image-rendering:pixelated" opacity="0"/>
    <image data-slot="s2-char-4" x="224" y="178" width="32" height="32" preserveAspectRatio="xMidYMid meet" style="image-rendering:pixelated" opacity="0"/>
    <image data-slot="s2-char-5" x="273" y="178" width="32" height="32" preserveAspectRatio="xMidYMid meet" style="image-rendering:pixelated" opacity="0"/>
    <image data-slot="s2-char-6" x="322" y="178" width="32" height="32" preserveAspectRatio="xMidYMid meet" style="image-rendering:pixelated" opacity="0"/>
    <image data-slot="s2-char-7" x="371" y="178" width="32" height="32" preserveAspectRatio="xMidYMid meet" style="image-rendering:pixelated" opacity="0"/>
    <image data-slot="s2-char-8" x="420" y="178" width="32" height="32" preserveAspectRatio="xMidYMid meet" style="image-rendering:pixelated" opacity="0"/>

    <rect class="sc-div" x="28" y="216" width="440" height="1.5"/>

    <!-- Situation: inning · count · diamond (fills full width) -->
    <text data-slot="inn-num" x="72" y="298" text-anchor="middle" class="sc-num" font-size="58" font-weight="700">1</text>
    <g data-slot="inn-arrow-up"><polygon points="56,246 88,246 72,228" style="fill:var(--accent)"/></g>
    <g data-slot="inn-arrow-down" opacity="0"><polygon points="56,316 88,316 72,334" style="fill:var(--accent)"/></g>
    <g data-slot="final-badge" opacity="0">
      <rect x="32" y="266" width="80" height="30" rx="6" style="fill:rgba(255,255,255,0.14)"/>
      <text x="72" y="287" text-anchor="middle" fill="#ffffff" font-family="var(--font-display)" font-size="17" font-weight="700" letter-spacing="1">FINAL</text>
    </g>

    <text x="156" y="252" text-anchor="end" class="sc-dim" font-size="17" font-weight="700">B</text>
    <circle data-slot="ball-0" cx="180" cy="246" r="8" style="fill:rgba(255,255,255,0.08)"/>
    <circle data-slot="ball-1" cx="206" cy="246" r="8" style="fill:rgba(255,255,255,0.08)"/>
    <circle data-slot="ball-2" cx="232" cy="246" r="8" style="fill:rgba(255,255,255,0.08)"/>
    <circle data-slot="ball-3" cx="258" cy="246" r="8" style="fill:rgba(255,255,255,0.08)"/>
    <text x="156" y="286" text-anchor="end" class="sc-dim" font-size="17" font-weight="700">S</text>
    <circle data-slot="strike-0" cx="180" cy="280" r="8" style="fill:rgba(255,255,255,0.08)"/>
    <circle data-slot="strike-1" cx="206" cy="280" r="8" style="fill:rgba(255,255,255,0.08)"/>
    <circle data-slot="strike-2" cx="232" cy="280" r="8" style="fill:rgba(255,255,255,0.08)"/>
    <text x="156" y="320" text-anchor="end" class="sc-dim" font-size="17" font-weight="700">O</text>
    <circle data-slot="out-0" cx="180" cy="314" r="8" style="fill:rgba(255,255,255,0.08)"/>
    <circle data-slot="out-1" cx="206" cy="314" r="8" style="fill:rgba(255,255,255,0.08)"/>
    <circle data-slot="out-2" cx="232" cy="314" r="8" style="fill:rgba(255,255,255,0.08)"/>

    <!-- diamond bases (WIDE rhombus, ~1.8:1 like the source design). 2B top,
         1B right, 3B left; the three tessellate at y278. Runners padded inside. -->
    <polygon data-slot="base-2" points="412,266 370,289 328,266 370,243" style="fill:rgba(255,255,255,0.08);stroke:var(--border);stroke-width:1.5"/>
    <polygon data-slot="base-3" points="366,292 324,315 282,292 324,269" style="fill:rgba(255,255,255,0.08);stroke:var(--border);stroke-width:1.5"/>
    <polygon data-slot="base-1" points="458,292 416,315 374,292 416,269" style="fill:rgba(255,255,255,0.08);stroke:var(--border);stroke-width:1.5"/>
    <image data-slot="runner-2" x="356" y="252" width="28" height="28" preserveAspectRatio="xMidYMid meet" style="image-rendering:pixelated" opacity="0"/>
    <image data-slot="runner-3" x="310" y="277" width="28" height="28" preserveAspectRatio="xMidYMid meet" style="image-rendering:pixelated" opacity="0"/>
    <image data-slot="runner-1" x="402" y="277" width="28" height="28" preserveAspectRatio="xMidYMid meet" style="image-rendering:pixelated" opacity="0"/>
  </g>

  <!-- ░░ 3a · CONDENSED SCORE BAR ░░ -->
  <g data-slot="el-condensed" data-h="112" opacity="0">
    <rect class="sc-div" x="16" y="0" width="464" height="1.5"/>
    <image data-slot="c-s1-logo" x="32" y="16" width="34" height="34" preserveAspectRatio="xMidYMid meet" opacity="0"/>
    <text data-slot="c-s1-name" data-maxw="300" x="76" y="44" class="sc-ink" font-size="26" font-weight="700">Player One</text>
    <text data-slot="c-s1-score" data-maxw="70" x="414" y="44" text-anchor="end" class="sc-num" font-size="30" font-weight="700">0</text>
    <image data-slot="c-s2-logo" x="32" y="64" width="34" height="34" preserveAspectRatio="xMidYMid meet" opacity="0"/>
    <text data-slot="c-s2-name" data-maxw="300" x="76" y="92" class="sc-ink" font-size="26" font-weight="700">Player Two</text>
    <text data-slot="c-s2-score" data-maxw="70" x="414" y="92" text-anchor="end" class="sc-num" font-size="30" font-weight="700">0</text>
    <text data-slot="c-inn-num" x="456" y="68" text-anchor="middle" class="sc-num" font-size="30" font-weight="700">1</text>
    <g data-slot="c-inn-arrow-up"><polygon points="446,28 466,28 456,16" style="fill:var(--accent)"/></g>
    <g data-slot="c-inn-arrow-down" opacity="0"><polygon points="446,80 466,80 456,92" style="fill:var(--accent)"/></g>
    <text data-slot="c-final" x="456" y="68" text-anchor="middle" style="fill:var(--ink)" font-family="var(--font-display)" font-size="16" font-weight="700" opacity="0">FIN</text>
  </g>

  <!-- ░░ 4 · AT-BAT / PITCHER GAME LINES ░░ -->
  <g data-slot="el-atbat" data-h="100">
    <rect class="sc-div" x="16" y="0" width="464" height="1.5"/>
    <!-- batter -->
    <rect x="28" y="18" width="30" height="20" rx="4" style="fill:var(--accent)"/>
    <text x="43" y="33" text-anchor="middle" fill="#ffffff" font-family="var(--font-display)" font-size="12" font-weight="700">AB</text>
    <image data-slot="bat-icon" x="66" y="8" width="40" height="40" preserveAspectRatio="xMidYMid meet" style="image-rendering:pixelated" opacity="0"/>
    <text data-slot="bat-line" data-maxw="352" x="116" y="34" class="sc-mono" font-size="18" font-weight="500">—</text>
    <!-- pitcher -->
    <rect x="28" y="64" width="24" height="20" rx="4" style="fill:var(--side2)"/>
    <text x="40" y="79" text-anchor="middle" fill="#ffffff" font-family="var(--font-display)" font-size="12" font-weight="700">P</text>
    <image data-slot="pit-icon" x="66" y="54" width="40" height="40" preserveAspectRatio="xMidYMid meet" style="image-rendering:pixelated" opacity="0"/>
    <text data-slot="pit-line" data-maxw="352" x="116" y="80" class="sc-mono" font-size="16" font-weight="500">—</text>
  </g>

  <!-- ░░ 5 · BOX SCORE (no names) ░░ -->
  <g data-slot="el-box" data-h="104">
    <rect class="sc-div" x="16" y="0" width="464" height="1.5"/>
    <g data-slot="box-col-1"><text data-slot="box-h-1" x="56" y="26" text-anchor="middle" class="sc-dim" font-size="14" font-weight="700">1</text></g>
    <g data-slot="box-col-2"><text data-slot="box-h-2" x="96" y="26" text-anchor="middle" class="sc-dim" font-size="14" font-weight="700">2</text></g>
    <g data-slot="box-col-3"><text data-slot="box-h-3" x="136" y="26" text-anchor="middle" class="sc-dim" font-size="14" font-weight="700">3</text></g>
    <g data-slot="box-col-4"><text data-slot="box-h-4" x="176" y="26" text-anchor="middle" class="sc-dim" font-size="14" font-weight="700">4</text></g>
    <g data-slot="box-col-5"><text data-slot="box-h-5" x="216" y="26" text-anchor="middle" class="sc-dim" font-size="14" font-weight="700">5</text></g>
    <g data-slot="box-col-6"><text data-slot="box-h-6" x="256" y="26" text-anchor="middle" class="sc-dim" font-size="14" font-weight="700">6</text></g>
    <g data-slot="box-col-7"><text data-slot="box-h-7" x="296" y="26" text-anchor="middle" class="sc-dim" font-size="14" font-weight="700">7</text></g>
    <g data-slot="box-col-8"><text data-slot="box-h-8" x="336" y="26" text-anchor="middle" class="sc-dim" font-size="14" font-weight="700">8</text></g>
    <g data-slot="box-col-9"><text data-slot="box-h-9" x="376" y="26" text-anchor="middle" class="sc-dim" font-size="14" font-weight="700">9</text></g>
    <rect x="414" y="10" width="1.5" height="86" class="sc-div"/>
    <text x="446" y="26" text-anchor="middle" style="fill:var(--ink-dim)" font-family="var(--font-display)" font-size="14" font-weight="700">R</text>

    <circle data-slot="box-away-dot" cx="34" cy="56" r="6" style="fill:var(--side1)"/>
    <text data-slot="box-away-1" x="56" y="61" text-anchor="middle" class="sc-num" font-size="15">-</text>
    <text data-slot="box-away-2" x="96" y="61" text-anchor="middle" class="sc-num" font-size="15">-</text>
    <text data-slot="box-away-3" x="136" y="61" text-anchor="middle" class="sc-num" font-size="15">-</text>
    <text data-slot="box-away-4" x="176" y="61" text-anchor="middle" class="sc-num" font-size="15">-</text>
    <text data-slot="box-away-5" x="216" y="61" text-anchor="middle" class="sc-num" font-size="15">-</text>
    <text data-slot="box-away-6" x="256" y="61" text-anchor="middle" class="sc-num" font-size="15">-</text>
    <text data-slot="box-away-7" x="296" y="61" text-anchor="middle" class="sc-num" font-size="15">-</text>
    <text data-slot="box-away-8" x="336" y="61" text-anchor="middle" class="sc-num" font-size="15">-</text>
    <text data-slot="box-away-9" x="376" y="61" text-anchor="middle" class="sc-num" font-size="15">-</text>
    <text data-slot="box-away-r" x="446" y="61" text-anchor="middle" style="fill:var(--ink)" font-family="var(--font-mono)" font-size="16" font-weight="700">0</text>

    <circle data-slot="box-home-dot" cx="34" cy="84" r="6" style="fill:var(--side2)"/>
    <text data-slot="box-home-1" x="56" y="89" text-anchor="middle" class="sc-num" font-size="15">-</text>
    <text data-slot="box-home-2" x="96" y="89" text-anchor="middle" class="sc-num" font-size="15">-</text>
    <text data-slot="box-home-3" x="136" y="89" text-anchor="middle" class="sc-num" font-size="15">-</text>
    <text data-slot="box-home-4" x="176" y="89" text-anchor="middle" class="sc-num" font-size="15">-</text>
    <text data-slot="box-home-5" x="216" y="89" text-anchor="middle" class="sc-num" font-size="15">-</text>
    <text data-slot="box-home-6" x="256" y="89" text-anchor="middle" class="sc-num" font-size="15">-</text>
    <text data-slot="box-home-7" x="296" y="89" text-anchor="middle" class="sc-num" font-size="15">-</text>
    <text data-slot="box-home-8" x="336" y="89" text-anchor="middle" class="sc-num" font-size="15">-</text>
    <text data-slot="box-home-9" x="376" y="89" text-anchor="middle" class="sc-num" font-size="15">-</text>
    <text data-slot="box-home-r" x="446" y="89" text-anchor="middle" style="fill:var(--ink)" font-family="var(--font-mono)" font-size="16" font-weight="700">0</text>
  </g>

  <!-- ░░ 6 · STADIUM ░░ -->
  <g data-slot="el-stadium" data-h="44">
    <rect class="sc-div" x="16" y="0" width="464" height="1.5"/>
    <text data-slot="stadium" data-maxw="420" x="248" y="29" text-anchor="middle" class="sc-dim" font-size="19" font-weight="600" letter-spacing="0.5">Stadium</text>
  </g>
</svg>
